<svg width="163" height="40" viewBox="0 0 163 40" fill="none" xmlns="http://www.w3.org/2000/svg">
<path d="M57.4469 14.9429V16.3006H54.6141V25.4955H53.1977V16.3006H50.4392V14.9429H57.4469Z" fill="#10828F"/>
<path d="M64.0434 14.9429H62.627V25.4955H64.0434V14.9429Z" fill="#10828F"/>
<path d="M69.999 14.9429H72.8905C74.0294 14.8998 75.1583 15.1705 76.1537 15.7255C76.9677 16.1948 77.623 16.8965 78.0357 17.7406C78.4282 18.553 78.6302 19.4442 78.6266 20.3464C78.6449 21.2981 78.3969 22.2359 77.9105 23.0541C77.4529 23.8211 76.7921 24.4468 76.0011 24.8618C75.2008 25.2844 74.3081 25.5022 73.403 25.4956H69.999V14.9429ZM73.1292 24.1262C73.8511 24.1397 74.5659 23.9815 75.2146 23.6644C75.815 23.3704 76.3157 22.9064 76.6545 22.3302C76.9976 21.6794 77.1749 20.954 77.1708 20.2183C77.1667 19.4826 76.9813 18.7593 76.6311 18.1123C76.2906 17.5348 75.7925 17.0665 75.1951 16.7624C74.5964 16.4539 73.9317 16.2955 73.2583 16.3007H71.4193V24.1262H73.1292Z" fill="#10828F"/>
<path d="M88.8898 22.7256H84.8323L83.7093 25.4958H82.3046L86.9178 14.5088H87.0078L91.6209 25.4997H89.9853L88.8898 22.7256ZM88.4085 21.497L86.906 17.639L85.3409 21.493L88.4085 21.497Z" fill="#10828F"/>
<path d="M97.9243 14.9429V24.1261H103.296V25.4955H96.5079V14.9429H97.9243Z" fill="#10828F"/>
<path d="M122.273 14.9429V16.3006H119.44V25.4955H118.024V16.3006H115.266V14.9429H122.273Z" fill="#10828F"/>
<path d="M133.265 25.4955L130.784 21.5828C130.668 21.5905 130.552 21.5905 130.436 21.5828H128.871V25.4642H127.454V14.8998H130.271C130.934 14.8911 131.59 15.0245 132.196 15.2911C132.739 15.5276 133.201 15.9163 133.527 16.4101C133.859 16.9403 134.026 17.5572 134.008 18.1826C134.013 18.8074 133.865 19.424 133.578 19.9786C133.286 20.5266 132.821 20.9627 132.255 21.2189L134.912 25.4642L133.265 25.4955ZM132.048 19.6264C132.378 19.2469 132.557 18.7598 132.552 18.2569C132.551 17.9386 132.479 17.6245 132.341 17.3375C132.191 17.0293 131.958 16.7692 131.668 16.5862C131.315 16.3718 130.907 16.2669 130.494 16.2849H128.859V20.2251H130.393C130.694 20.2573 131 20.2216 131.286 20.1208C131.572 20.0199 131.833 19.8563 132.048 19.6421V19.6264Z" fill="#10828F"/>
<path d="M141.426 14.9429H140.01V25.4955H141.426V14.9429Z" fill="#10828F"/>
<path d="M152.907 15.8039C153.235 16.1099 153.493 16.4844 153.66 16.9009C153.828 17.3175 153.902 17.7658 153.877 18.2142C153.882 18.7879 153.76 19.3556 153.521 19.8771C153.268 20.4067 152.858 20.8453 152.347 21.1331C151.735 21.4742 151.04 21.6406 150.34 21.6144H148.775V25.4958H147.358V14.9314H150.191C151.174 14.8702 152.144 15.1818 152.907 15.8039ZM151.592 19.9201C151.889 19.7299 152.125 19.4582 152.273 19.1376C152.403 18.8553 152.473 18.5486 152.476 18.2377C152.481 17.7422 152.304 17.2622 151.979 16.8878C151.783 16.679 151.542 16.5174 151.274 16.415C151.007 16.3127 150.719 16.2723 150.434 16.2969H148.798V20.2371H150.363C150.795 20.2573 151.224 20.1469 151.592 19.9201Z" fill="#10828F"/>
<path d="M42.3398 30.9889V32.9218C41.3555 32.9205 40.3819 32.7167 39.4796 32.3231C37.0576 31.2354 36.0912 29.0599 32.2215 29.0599C27.0684 29.0599 27.0684 32.9257 21.9153 32.9257C16.7622 32.9257 16.7583 29.0599 11.6052 29.0599C6.45212 29.0599 6.44821 32.9257 1.29513 32.9257C1.0721 32.9257 0.860811 32.9257 0.657349 32.9022V30.9732C0.860811 30.9732 1.06819 30.9732 1.29121 30.9732C6.4443 30.9732 6.4443 27.1074 11.6013 27.1074C16.7583 27.1074 16.7544 30.9732 21.9114 30.9732C27.0684 30.9732 27.0645 27.1074 32.2215 27.1074C36.0912 27.1074 37.0537 29.2868 39.4796 30.3746C40.3802 30.7753 41.3542 30.9845 42.3398 30.9889Z" fill="#10828F"/>
<path d="M42.3398 21.814V23.743C41.3533 23.7393 40.3786 23.5273 39.4796 23.1209C37.0967 22.0292 36.1186 19.885 32.2762 19.885C27.1232 19.885 27.1232 23.7469 21.9662 23.7469C16.8092 23.7469 16.8131 19.885 11.6561 19.885C6.49908 19.885 6.49908 23.7469 1.34599 23.7469C1.1034 23.7469 0.876462 23.7469 0.657349 23.7234V21.7905C0.876462 21.7905 1.1034 21.814 1.34208 21.814C6.39343 21.814 6.49516 18.1047 11.347 17.956C11.5842 15.7327 12.6604 13.6835 14.3562 12.2261C16.052 10.7688 18.2398 10.013 20.4735 10.1128C22.7073 10.2126 24.8189 11.1604 26.378 12.7632C27.9371 14.3659 28.8263 16.5029 28.8643 18.7386C29.9172 18.1973 31.0888 17.9283 32.2723 17.956C36.1146 17.956 37.0928 20.1002 39.4796 21.1958C40.3801 21.5972 41.354 21.8077 42.3398 21.814Z" fill="#D85E40"/>
<path d="M120.29 40H0V0H120.29V1.31468H1.31468V38.6892H120.29V40Z" fill="#10828F"/>
<path d="M162.629 40H41.6825V0H162.629V40ZM42.9933 38.6892H161.315V1.31468H42.9933V38.6892Z" fill="#10828F"/>
</svg>
